PathFileType	4	(X/Y/Z)	C:\Users\Basilio\Documents\Thesis Gigler\squatting_fais\c3dfiles\038\SLS_front_pre1\markers_experimental.trc
DataRate	CameraRate	NumFrames	NumMarkers	Units	OrigDataRate	OrigDataStartFrame	OrigNumFrames
200.000000	200.000000	4	61	mm	200.000000	479	1279
Frame#	Time	FHD			LBHD			RBHD			C7			T10			CLAV			LSHO			LUUPA			LMUPA			LDUPA			LLEP			LMEP			LUL			LRFIN			RSHO			RUPA1			RMUPA			RDUPA			RLEP			RMEP			RRAD			RUL			RUFIN			LASI			RASI			USACR			LSACR			RSACR			LTHI1			LTHI2			LTHI3			LTHI4			LLFC			LMFC			LTIB1			LTIB2			LTIB3			LTIB4			LLMAL			LMMAL			LHEE			LMT1			LMT2			LMT5			RTHI			RTHI2			RTHI3			RTHI4			RLFC			RMFC			RTIB1			RTIB2			RTIB3			RTIB4			RLMAL			RMMAL			RHEE			RMT1			RMT2			RMT5			LRAD			
		X1	Y1	Z1	X2	Y2	Z2	X3	Y3	Z3	X4	Y4	Z4	X5	Y5	Z5	X6	Y6	Z6	X7	Y7	Z7	X8	Y8	Z8	X9	Y9	Z9	X10	Y10	Z10	X11	Y11	Z11	X12	Y12	Z12	X13	Y13	Z13	X14	Y14	Z14	X15	Y15	Z15	X16	Y16	Z16	X17	Y17	Z17	X18	Y18	Z18	X19	Y19	Z19	X20	Y20	Z20	X21	Y21	Z21	X22	Y22	Z22	X23	Y23	Z23	X24	Y24	Z24	X25	Y25	Z25	X26	Y26	Z26	X27	Y27	Z27	X28	Y28	Z28	X29	Y29	Z29	X30	Y30	Z30	X31	Y31	Z31	X32	Y32	Z32	X33	Y33	Z33	X34	Y34	Z34	X35	Y35	Z35	X36	Y36	Z36	X37	Y37	Z37	X38	Y38	Z38	X39	Y39	Z39	X40	Y40	Z40	X41	Y41	Z41	X42	Y42	Z42	X43	Y43	Z43	X44	Y44	Z44	X45	Y45	Z45	X46	Y46	Z46	X47	Y47	Z47	X48	Y48	Z48	X49	Y49	Z49	X50	Y50	Z50	X51	Y51	Z51	X52	Y52	Z52	X53	Y53	Z53	X54	Y54	Z54	X55	Y55	Z55	X56	Y56	Z56	X57	Y57	Z57	X58	Y58	Z58	X59	Y59	Z59	X60	Y60	Z60	X61	Y61	Z61	

480	2.395	-255.0636749267579	1642.945556640625	-1126.89794921875	-411.9920043945314	1597.69384765625	-1188.695190429688	-406.1800231933595	1586.309814453125	-1043.843627929688	-474.1734619140626	1423.699462890625	-1110.708251953125	-488.5211486816407	1142.30908203125	-1083.753173828125	-331.5502624511719	1400.621337890625	-1123.284912109375	-407.1876831054689	1445.12548828125	-1256.187866210938	-246.4671325683594	1385.36279296875	-1387.528564453125	-218.3624572753907	1418.276977539063	-1360.308227539063	-177.3557891845703	1391.938232421875	-1395.23291015625	-115.4203567504883	1393.07470703125	-1396.35546875	-106.0140533447266	1319.596923828125	-1371.624145507813	179.2690887451172	1400.828979492188	-1372.466674804688	243.3710632324219	1421.765869140625	-1285.213256835938	-381.5078735351563	1444.280883789063	-983.7271118164065	-221.9400482177735	1423.795166015625	-868.8569335937502	-187.6972961425782	1434.061279296875	-901.4302368164065	-153.8309326171875	1420.724853515625	-852.9946899414065	-80.96343994140626	1418.661254882813	-844.5904541015627	-73.71665191650392	1342.0576171875	-864.3955078125002	198.0115051269532	1421.594848632813	-911.2102050781252	205.2351074218751	1432.380737304688	-841.836120605469	276.8294067382813	1458.236328125	-911.1467285156252	-302.9064941406251	955.4570312500002	-1164.848388671875	-339.7078857421876	990.798522949219	-920.6390380859377	-491.2119750976564	984.7727050781252	-1062.229858398438	-494.4390563964845	950.2794189453127	-1087.652709960938	-501.9451904296876	955.575378417969	-1031.465942382813	-223.6591186523438	657.3474121093751	-1223.950561523438	-162.95751953125	596.9909667968751	-1221.8642578125	-122.1912689208985	619.6227416992189	-1202.092895507813	-168.464096069336	539.6285400390626	-1203.600952148438	-152.0087127685547	485.9551391601564	-1191.401977539063	-134.8290557861328	489.0880126953126	-1076.700805664063	-168.9715270996094	309.6837158203126	-1095.247192382813	-230.4786987304688	279.4349975585938	-1152.531494140625	-198.373275756836	265.4113464355469	-1124.130004882813	-237.1368865966797	203.5039978027344	-1081.038696289063	-363.9300231933594	107.2106018066407	-1083.69580078125	-319.9419250488282	128.7982788085938	-1013.662292480469	-417.1959228515626	94.13423156738283	-1018.7255859375	-216.6216125488282	50.42970657348634	-1020.269897460938	-210.5726318359376	46.13148880004884	-1071.095581054688	-257.1356811523438	30.14755439758301	-1114.545043945313	-251.3839569091797	758.2088623046876	-837.5569458007815	-187.0158996582032	741.5429077148439	-832.867126464844	-163.2086181640625	763.7864379882814	-839.789733886719	-155.7615356445313	661.0042114257814	-841.3167114257815	-53.97522735595705	569.9377441406251	-841.0725708007815	-47.71039199829102	561.9467163085939	-961.0949707031252	94.12879180908205	460.9942932128907	-851.1711425781252	82.3351516723633	351.9505004882813	-810.3179321289065	117.437126159668	383.1980285644532	-819.4002685546877	160.0848388671875	350.5256652832032	-843.1923828125002	188.8916473388672	215.8738708496094	-803.4036254882815	211.3160247802735	239.892562866211	-883.5889892578127	185.2820281982422	137.0322723388672	-865.3987426757815	342.7161865234376	285.9074707031251	-849.2158203125002	332.9572753906251	290.6964721679688	-803.220642089844	315.0527648925782	247.5340118408204	-759.0615234375001	171.4913940429688	1388.48828125	-1300.925537109375	
481	2.4	-255.0303497314454	1642.471435546875	-1127.28271484375	-411.914764404297	1596.717895507813	-1188.90185546875	-405.9581298828126	1585.209350585938	-1044.043212890625	-474.0130615234376	1422.769287109375	-1110.775634765625	-488.666473388672	1141.528442382813	-1083.678588867188	-331.4914245605469	1399.65625	-1123.396240234375	-406.8872680664064	1444.359497070313	-1256.372680664063	-246.5303955078126	1384.080322265625	-1387.72216796875	-218.2886505126954	1417.187133789063	-1360.461669921875	-177.0965576171875	1390.853271484375	-1395.4990234375	-115.7636413574219	1392.2353515625	-1396.487182617188	-105.914535522461	1318.58251953125	-1371.818115234375	179.3634490966797	1399.528686523438	-1372.684204101563	243.5154418945313	1420.720825195313	-1285.504760742188	-381.3077697753907	1443.629516601563	-984.0239257812502	-221.533920288086	1422.930541992188	-868.9968872070315	-187.5938720703125	1433.241088867188	-901.7111816406252	-153.3901672363282	1420.180786132813	-853.135192871094	-80.76541137695314	1417.928466796875	-844.7276000976565	-73.48812866210939	1341.328369140625	-864.4598388671877	198.3173828125001	1420.661499023438	-911.2537231445315	205.413558959961	1431.376098632813	-841.703063964844	276.9840087890626	1456.973266601563	-911.0073852539065	-303.3111572265626	954.4887695312502	-1164.662963867188	-339.9906616210938	990.0317382812502	-920.6622314453127	-491.5073852539064	983.8562622070315	-1061.97119140625	-496.364715576172	950.041687011719	-1087.72265625	-502.2176818847657	954.5781860351565	-1031.259521484375	-223.6614227294922	656.8156738281251	-1224.23681640625	-162.8344116210938	596.5587158203126	-1222.29541015625	-122.1359786987305	619.3175659179689	-1202.431030273438	-167.776840209961	538.9617919921876	-1203.9140625	-151.6154022216797	485.5300598144532	-1191.829833984375	-134.5088653564453	488.7228393554689	-1077.050903320313	-168.7760162353516	309.4255065917969	-1095.601928710938	-230.374252319336	279.1802978515626	-1152.744995117188	-198.3209838867188	265.0921325683594	-1124.547119140625	-237.0074462890626	203.322982788086	-1081.23974609375	-364.8081359863282	107.062973022461	-1084.148193359375	-319.9424133300782	128.7896118164063	-1013.683654785156	-417.2247924804689	94.14707183837892	-1018.742004394531	-216.6366271972657	50.4973487854004	-1020.321838378906	-210.557113647461	46.14155578613282	-1071.1572265625	-257.1448974609376	30.06938362121583	-1114.578491210938	-251.5066986083985	757.4959106445314	-837.4790039062502	-186.7599334716797	741.2872314453126	-832.973327636719	-163.4405517578125	763.4516601562501	-839.872253417969	-155.741683959961	660.5516357421876	-841.339782714844	-53.78123855590822	569.2463989257814	-841.0742187500002	-47.55849838256837	561.4595336914064	-961.0881347656252	94.30197906494142	460.7617797851564	-851.091491699219	82.61656188964845	351.5375976562501	-810.2913818359377	117.700065612793	382.7676391601563	-819.5592041015627	160.4368743896485	350.1658020019532	-843.307067871094	189.3680725097657	215.4816436767579	-803.554138183594	212.1136779785157	239.3002014160157	-883.795593261719	185.621810913086	136.6790924072266	-865.504333496094	342.9488525390626	285.7348632812501	-849.198913574219	333.2857666015626	290.5665283203126	-803.287536621094	315.4435424804688	247.105453491211	-759.0101318359376	171.415512084961	1387.179931640625	-1301.3623046875	
482	2.405	-254.7857055664063	1641.299926757813	-1127.584228515625	-411.9452514648439	1595.531372070313	-1189.075561523438	-405.7933044433595	1584.430786132813	-1044.344604492188	-473.7279357910157	1421.94140625	-1110.982543945313	-488.6700134277345	1140.736083984375	-1083.517456054688	-331.2881164550782	1398.878662109375	-1123.68603515625	-406.742156982422	1443.546142578125	-1256.41552734375	-246.4688262939454	1383.2080078125	-1387.882080078125	-218.2037506103516	1416.142944335938	-1360.64208984375	-177.0844421386719	1389.806640625	-1395.593017578125	-115.5045547485352	1391.0947265625	-1396.660278320313	-105.8687820434571	1317.53662109375	-1371.72998046875	179.476806640625	1398.263671875	-1372.926025390625	243.7583160400391	1419.282104492188	-1285.745361328125	-380.9583129882813	1442.78466796875	-984.3252563476565	-221.2930908203126	1421.976806640625	-869.149597167969	-187.3331451416016	1432.552978515625	-901.7962646484377	-153.0197906494141	1419.494384765625	-853.2530517578127	-80.46753692626955	1417.120971679688	-844.8050537109377	-73.27986907958986	1340.47216796875	-864.4418945312502	198.6199951171876	1419.682006835938	-911.3071289062502	205.7018432617188	1430.585083007813	-841.750427246094	277.3257751464844	1456.151489257813	-911.1617431640627	-303.9916076660157	953.3680419921877	-1164.61328125	-340.1226501464844	989.0987548828127	-920.4730224609377	-491.6698608398439	983.0244750976565	-1061.85888671875	-495.6164550781251	949.1856079101565	-1087.325805664063	-502.4187622070314	953.9560546875002	-1031.071411132813	-223.7340087890626	656.3213500976564	-1224.43896484375	-162.2622985839844	595.8506469726564	-1222.510986328125	-122.0883941650391	618.9731445312501	-1202.83740234375	-167.5579986572266	538.4961547851564	-1204.309204101563	-151.2576751708985	485.2605285644532	-1192.150390625	-133.9398498535157	488.3428039550782	-1077.446166992188	-168.368408203125	309.0718994140626	-1096.064208984375	-230.2248687744141	278.9374084472657	-1153.064208984375	-198.1152496337891	265.0197143554688	-1124.748901367188	-236.9668579101563	203.1509399414063	-1081.447265625	-363.9241638183594	107.1465835571289	-1083.759887695313	-319.9242553710938	128.8198394775391	-1013.724487304688	-416.9695739746095	93.9063186645508	-1019.158264160156	-216.6752929687501	50.46709442138673	-1020.345947265625	-210.5631408691407	46.12121963500977	-1071.290893554688	-257.1476440429688	30.08258247375489	-1114.585571289063	-251.6151885986329	756.8261718750001	-837.333190917969	-186.7773132324219	740.6480712890626	-832.9630126953127	-163.4152069091797	762.8479614257814	-839.9121704101565	-155.7131500244141	659.8545532226564	-841.3122558593752	-53.64139556884767	568.7231445312501	-841.079040527344	-47.31909561157227	560.8637084960939	-961.1492309570315	94.50181579589845	460.3946533203126	-851.1629028320315	82.88053131103517	351.0387573242188	-810.3917236328127	117.9434127807617	382.2768249511719	-819.6204833984377	160.7208404541016	349.8427734375001	-843.395202636719	189.574203491211	215.157455444336	-803.5891113281252	212.3627929687501	238.9224700927735	-883.7908325195315	186.2044525146485	136.16162109375	-865.7219848632815	343.2964172363282	285.4432983398438	-849.2098388671877	333.6879272460938	290.2856140136719	-803.3061523437502	315.6670837402344	246.8247833251954	-759.0701293945314	171.7017364501953	1386.1572265625	-1301.574584960938	
483	2.41	-254.4863433837891	1640.017700195313	-1127.65673828125	-411.8690490722657	1594.156494140625	-1189.385498046875	-405.6825256347657	1583.5791015625	-1044.458618164063	-473.5674438476564	1421.21875	-1111.136108398438	-488.975555419922	1140.056396484375	-1083.434814453125	-331.0502319335938	1397.872436523438	-1123.889526367188	-406.4459533691407	1442.45654296875	-1256.654296875	-246.203353881836	1382.062744140625	-1387.9375	-218.1160430908204	1415.05322265625	-1360.710693359375	-177.0335693359375	1388.720581054688	-1395.73876953125	-115.4984588623047	1390.147705078125	-1396.827392578125	-105.7792129516602	1316.575317382813	-1372.007934570313	179.5520782470703	1397.114501953125	-1373.044189453125	244.1056518554688	1418.189697265625	-1285.965698242188	-380.5917663574219	1442.008911132813	-984.578063964844	-221.1057739257813	1421.4052734375	-869.2847900390627	-187.0308990478516	1431.8037109375	-901.9388427734377	-152.8493347167969	1418.497436523438	-853.397155761719	-80.14178466796876	1416.2548828125	-844.9921875000002	-72.94818115234376	1339.411376953125	-864.691101074219	198.9770507812501	1418.909912109375	-911.2727050781252	205.9763793945313	1429.763671875	-841.806335449219	277.6617736816407	1455.173217773438	-911.2265625000002	-304.2006225585938	952.714294433594	-1164.70654296875	-340.4135131835938	988.3070068359377	-920.4014892578127	-492.0343627929689	982.3210449218752	-1061.679931640625	-495.769500732422	948.2185668945315	-1087.174560546875	-502.7037963867189	953.075378417969	-1030.838134765625	-223.8476867675782	655.8509521484376	-1224.600219726563	-162.4767303466797	595.7803955078126	-1222.887939453125	-121.875602722168	618.5836791992189	-1203.306762695313	-167.8051452636719	538.4546508789064	-1204.515625	-150.9245758056641	484.8922729492189	-1192.55322265625	-133.2708435058594	487.9219055175782	-1077.869873046875	-167.9696044921875	308.6721801757813	-1096.498657226563	-230.182601928711	278.7575988769532	-1153.225219726563	-197.7243652343751	265.6850585937501	-1124.663818359375	-236.8531036376954	202.9672546386719	-1081.774169921875	-364.8442382812501	107.1404724121094	-1084.142211914063	-319.8927307128907	128.81689453125	-1013.762268066406	-416.9810791015626	93.88844299316408	-1019.116394042969	-216.6288146972657	50.47744369506837	-1020.379638671875	-210.5724639892579	46.10068130493165	-1071.238403320313	-257.2254333496094	30.0727710723877	-1114.652221679688	-251.5676269531251	756.0807495117189	-837.2297363281252	-187.1211853027344	739.7574462890626	-833.3518676757815	-163.4456787109375	762.2150878906251	-839.9052734375002	-155.5623016357422	659.3038330078126	-841.321716308594	-53.58150100708009	568.2719726562501	-841.082946777344	-47.23790740966798	560.3656616210939	-961.1854248046877	94.64898681640626	459.3641967773439	-851.616882324219	83.31595611572267	350.5313110351563	-810.4409179687502	118.0749816894532	381.9170532226563	-819.6278076171877	161.0381317138672	349.4172363281251	-843.5059814453127	189.7852630615235	214.8280639648438	-803.5864257812502	212.7876892089844	238.6046142578126	-883.9315185546877	186.718490600586	135.6946716308594	-865.9094238281252	343.6707763671876	285.2072143554688	-849.2216796875002	334.0168151855469	289.9680786132813	-803.368103027344	315.9584045410157	246.6230010986329	-759.2310180664064	172.0171813964844	1384.79931640625	-1301.64697265625	
